<svg width="20" height="20" viewBox="0 0 20 20" fill="none" xmlns="http://www.w3.org/2000/svg">
<path d="M14.1671 7.64174C14.0109 7.48653 13.7997 7.39941 13.5796 7.39941C13.3594 7.39941 13.1482 7.48653 12.9921 7.64174L10.0004 10.5917L7.0504 7.64174C6.89427 7.48653 6.68306 7.39941 6.4629 7.39941C6.24275 7.39941 6.03154 7.48653 5.8754 7.64174C5.7973 7.71921 5.7353 7.81138 5.693 7.91293C5.65069 8.01448 5.62891 8.1234 5.62891 8.23341C5.62891 8.34342 5.65069 8.45234 5.693 8.55389C5.7353 8.65544 5.7973 8.74761 5.8754 8.82507L9.40874 12.3584C9.48621 12.4365 9.57837 12.4985 9.67992 12.5408C9.78147 12.5831 9.89039 12.6049 10.0004 12.6049C10.1104 12.6049 10.2193 12.5831 10.3209 12.5408C10.4224 12.4985 10.5146 12.4365 10.5921 12.3584L14.1671 8.82507C14.2452 8.74761 14.3072 8.65544 14.3495 8.55389C14.3918 8.45234 14.4136 8.34342 14.4136 8.23341C14.4136 8.1234 14.3918 8.01448 14.3495 7.91293C14.3072 7.81138 14.2452 7.71921 14.1671 7.64174Z" fill="white"/>
</svg>
